# xmcd CD database file
# Copyright (C) 1993-1998 Ti Kan
#
# Track frame offsets:
#  150
#  3167
#  9182
#  14670
#  20652
#  29307
#  35252
#  41102
#  47872
#  53332
#  59257
#  66462
#  72342
#  76940
#  84765
#  91254
#  96705
#  104827
#  110635
#  116272
#  121637
#  127882
#  132777
#  138832
#  147722
#  150895
#  157090
#  163240
#  167105
#  171620
#  179625
#  185200
#  191687
#  197907
#  203357
#  209050
#  214525
#  221777
#  229097
#  235925
#  241712
#  246535
#
# Disc length: 3683 seconds
#
# Revision: 1
# Processed by: cddbd v1.4b41PL1 Copyright (c) Steve Scherf et al.
# Submitted via: KiC 2.1 - (C) 1996-1998 Alwin Hoogerdijk
#
DISCID=610e612a
DTITLE=Various Artist - Weiser National Oldtime Fiddler's Contest 1996
DYEAR=1900
DGENRE=
TTITLE0=Jack Link - Introduction
TTITLE1=Danita Hartz - Brilliancy
TTITLE2=Danita Hartz - Whistler's Waltz
TTITLE3=Danita Hartz - Limerock
TTITLE4=Tashina Clarridge - Sally Goodin
TTITLE5=Tashina Clarridge - Carnival Waltz
TTITLE6=Tashina Clarridge - Herman's Rag
TTITLE7=Megan Lynch - Dusty Miller
TTITLE8=Megan Lynch - Kentucky Waltz
TTITLE9=Megan Lynch - Jesse Polka
TTITLE10=Levi Dennis - Billy in the Lowground
TTITLE11=Levi Dennis - Old South Waltz
TTITLE12=Levi Dennis - Texas Serenade
TTITLE13=Luke Bulla - Hotsprings
TTITLE14=Luke Bulla - Lucinda Waltz
TTITLE15=Luke Bulla - Don't Let the Deal Go Down
TTITLE16=Joseph Smart - Tom and Jerry
TTITLE17=Joseph Smart - Velvet's Waltz
TTITLE18=Joseph Smart - Allentown Polka
TTITLE19=Matthew Hartz - Wild John
TTITLE20=Matthew Hartz - Oopik Waltz
TTITLE21=Matthew Hartz - Canebreak
TTITLE22=John Nyen - Gray Eagle
TTITLE23=John Nyen - Dobre Waltz
TTITLE24=John Nyen - Going Places
TTITLE25=Jack Link - Final Round Introductions
TTITLE26=Levi Dennis - Sally Johnson
TTITLE27=Levi Dennis - Rosebud of Avonmore
TTITLE28=Levi Dennis - I Don't Love Nobody
TTITLE29=Luke Bulla - Waggoner
TTITLE30=Luke Bulla - Memories Waltz
TTITLE31=Luke Bulla - 12th Street Rag
TTITLE32=Megan Lynch - College Hornpipe
TTITLE33=Megan Lynch - Westphalia Waltz
TTITLE34=Megan Lynch - Solomon's Rag
TTITLE35=John Nyen - Done Gone
TTITLE36=John Nyen - Wednesday Night Waltz
TTITLE37=John Nyen - Cotton Patch Rag
TTITLE38=Matthew Hartz - Say Old Man
TTITLE39=Matthew Hartz - Kelly Waltz
TTITLE40=Matthew Hartz - Crafton's Blues
TTITLE41=Jack Link - Award Presentation
EXTD=
EXTT0=
EXTT1=
EXTT2=
EXTT3=
EXTT4=
EXTT5=
EXTT6=
EXTT7=
EXTT8=
EXTT9=
EXTT10=
EXTT11=
EXTT12=
EXTT13=
EXTT14=
EXTT15=
EXTT16=
EXTT17=
EXTT18=
EXTT19=
EXTT20=
EXTT21=
EXTT22=
EXTT23=
EXTT24=
EXTT25=
EXTT26=
EXTT27=
EXTT28=
EXTT29=
EXTT30=
EXTT31=
EXTT32=
EXTT33=
EXTT34=
EXTT35=
EXTT36=
EXTT37=
EXTT38=
EXTT39=
EXTT40=
EXTT41=
PLAYORDER=
